<svg width="916" height="238" viewBox="0 0 916 238" fill="none" xmlns="http://www.w3.org/2000/svg">
<path d="M532.6 75.65L593.35 74.75C596.25 75.65 597.7 77.1 597.7 79.1C597.7 84.1 595.65 86.6 591.55 86.6C584.05 86.6 576.1 86.8 567.7 87.2C567.2 95.8 566.95 102.3 566.95 106.7C566.95 111 566.95 113.75 566.95 114.95L567.55 167.6C567.55 170.7 566.75 172.5 565.15 173C563.95 173.4 562.45 173.6 560.65 173.6C557.75 173.6 556.15 171.95 555.85 168.65C555.25 160.95 554.95 146.6 554.95 125.6C554.95 104.5 555.25 91.8 555.85 87.5C553.75 87.6 550.65 87.65 546.55 87.65C542.45 87.65 537.35 87.6 531.25 87.5C529.65 87.5 528.4 87 527.5 86C526.6 85 526.15 83.8 526.15 82.4C526.15 80.9 526.75 79.45 527.95 78.05C529.25 76.65 530.8 75.85 532.6 75.65ZM643.716 102.95C648.116 102.95 650.316 106.7 650.316 114.2C650.316 115 650.316 115.85 650.316 116.75L650.016 127.25C649.916 130.55 649.866 133.8 649.866 137L652.116 170.9C652.116 173.4 649.566 174.65 644.466 174.65C644.166 174.65 643.416 174.65 642.216 174.65C641.116 174.65 640.316 174.2 639.816 173.3C639.416 172.4 639.366 171.3 639.666 170C640.066 168.7 639.966 167.25 639.366 165.65C634.766 170.55 628.666 173 621.066 173C606.966 173 599.916 162.1 599.916 140.3C599.916 128.2 602.166 119.05 606.666 112.85C611.266 106.65 617.816 103.55 626.316 103.55C630.316 103.55 634.316 104.25 638.316 105.65C639.616 103.85 641.416 102.95 643.716 102.95ZM628.116 116.6C622.416 116.6 618.166 118.25 615.366 121.55C612.566 124.85 611.166 130.9 611.166 139.7C611.166 154.5 615.166 161.9 623.166 161.9C625.266 161.9 627.566 160.95 630.066 159.05C632.666 157.15 634.466 155 635.466 152.6C637.366 147.2 638.316 141.3 638.316 134.9C638.316 128.5 637.516 123.85 635.916 120.95C634.416 118.05 631.816 116.6 628.116 116.6ZM663.156 122C663.156 116.1 665.256 111.4 669.456 107.9C673.656 104.4 678.506 102.65 684.006 102.65C689.606 102.65 694.956 103.65 700.056 105.65C705.156 107.65 707.706 110.3 707.706 113.6C707.706 115.3 707.056 116.65 705.756 117.65C704.456 118.65 703.306 119.15 702.306 119.15C701.406 119.15 700.656 119.15 700.056 119.15C699.556 119.05 697.556 118.1 694.056 116.3C690.656 114.5 687.506 113.6 684.606 113.6C681.706 113.6 679.206 114.35 677.106 115.85C675.106 117.25 674.106 119.35 674.106 122.15C674.106 124.95 675.256 127.15 677.556 128.75C679.956 130.35 684.106 131.75 690.006 132.95C695.906 134.05 700.406 135.65 703.506 137.75C706.706 139.85 708.306 143.75 708.306 149.45C708.306 157.75 706.106 163.65 701.706 167.15C697.406 170.55 692.156 172.25 685.956 172.25C679.756 172.25 674.456 171.4 670.056 169.7C665.756 168 663.606 165.45 663.606 162.05C663.606 158.15 665.556 156.2 669.456 156.2C670.456 156.2 672.656 156.9 676.056 158.3C679.456 159.7 682.806 160.4 686.106 160.4C689.506 160.4 692.056 159.35 693.756 157.25C695.556 155.05 696.456 152.55 696.456 149.75C696.456 146.95 695.306 144.95 693.006 143.75C690.706 142.45 687.206 141.4 682.506 140.6C677.806 139.8 674.356 138.95 672.156 138.05C666.156 135.65 663.156 130.3 663.156 122ZM771.871 166.25C771.871 170.95 769.721 173.3 765.421 173.3C763.621 173.3 761.171 168.9 758.071 160.1C754.971 151.2 750.821 144.35 745.621 139.55C745.121 140.25 742.971 142.25 739.171 145.55C735.471 148.75 733.271 150.7 732.571 151.4V166.4C732.371 167.9 732.121 169.05 731.821 169.85C731.521 170.65 730.821 171.4 729.721 172.1C728.721 172.8 727.321 173.15 725.521 173.15C722.821 173.15 721.471 171.5 721.471 168.2C721.471 158.9 721.071 144.5 720.271 125C719.471 105.4 719.071 87.85 719.071 72.35C719.071 70.45 719.821 68.95 721.321 67.85C722.921 66.75 724.571 66.2 726.271 66.2C728.571 66.2 729.971 67.65 730.471 70.55V97.1C730.471 100.3 730.521 102.7 730.621 104.3C730.721 105.9 730.821 108.3 730.921 111.5C731.121 118.1 731.471 125.55 731.971 133.85C734.871 131.65 738.571 128.2 743.071 123.5C747.671 118.7 751.121 114.6 753.421 111.2C757.021 105.5 760.321 102.65 763.321 102.65C764.121 102.65 764.921 102.85 765.721 103.25C767.821 104.45 768.871 105.85 768.871 107.45C768.871 109.05 768.171 111.15 766.771 113.75C763.171 119.95 759.021 125.6 754.321 130.7C758.821 135.7 763.321 142.85 767.821 152.15C770.521 158.15 771.871 162.85 771.871 166.25ZM845.827 150.65C849.327 150.65 851.077 153.6 851.077 159.5C851.077 162.7 849.327 165.9 845.827 169.1C842.427 172.2 839.027 173.75 835.627 173.75C832.227 173.75 829.477 173.2 827.377 172.1C825.377 170.9 823.727 169.15 822.427 166.85C821.227 164.55 820.227 162.35 819.427 160.25C818.727 158.05 818.177 155.4 817.777 152.3C817.277 147.3 816.977 142.65 816.877 138.35C816.877 133.95 816.777 125.85 816.577 114.05C814.777 114.85 813.127 115.3 811.627 115.4C810.127 115.4 808.727 115.4 807.427 115.4C806.127 115.4 804.677 115.35 803.077 115.25C803.277 119.25 803.727 126.4 804.427 136.7C805.127 146.9 805.477 156.85 805.477 166.55C805.477 168.55 804.677 170.15 803.077 171.35C801.477 172.55 799.827 173.15 798.127 173.15C795.427 173.15 794.077 171.55 794.077 168.35C794.077 159.35 793.727 150.6 793.027 142.1C792.327 133.6 791.827 124.65 791.527 115.25C782.527 115.25 777.277 114.35 775.777 112.55C775.177 111.85 774.877 110.95 774.877 109.85C774.877 107.25 775.927 105.55 778.027 104.75C780.227 103.95 782.727 103.55 785.527 103.55C788.327 103.55 790.327 103.55 791.527 103.55C791.827 87.25 792.727 77.15 794.227 73.25C795.127 70.85 796.327 69.1 797.827 68C799.427 66.8 800.777 66.15 801.877 66.05C803.077 65.85 805.727 65.75 809.827 65.75C813.927 65.75 817.277 66.3 819.877 67.4C820.677 67 821.877 66.8 823.477 66.8C825.177 66.8 826.577 67.25 827.677 68.15C828.877 69.05 829.477 70.6 829.477 72.8C829.477 75 829.227 81.8 828.727 93.2C828.327 104.6 828.127 114.8 828.127 123.8C828.127 132.8 828.477 140.05 829.177 145.55C830.377 155.15 832.077 159.95 834.277 159.95C836.477 159.95 838.177 158.4 839.377 155.3C839.777 154.1 840.527 153.05 841.627 152.15C842.727 151.15 844.127 150.65 845.827 150.65ZM813.277 104C814.477 104 815.527 104.15 816.427 104.45C816.427 91.85 816.477 83.45 816.577 79.25C812.377 77.75 809.977 77 809.377 77C805.877 77 803.777 79.1 803.077 83.3C802.877 84.8 802.777 87.9 802.777 92.6C802.777 97.2 802.777 101 802.777 104H813.277ZM905.185 103.7C906.485 103.7 907.735 104.15 908.935 105.05C910.235 105.95 910.885 106.95 910.885 108.05C910.885 110.95 906.635 126.65 898.135 155.15C889.635 183.65 883.335 203.65 879.235 215.15C878.335 217.85 876.935 219.2 875.035 219.2C873.135 219.2 871.635 218.5 870.535 217.1C869.435 215.8 868.885 213.85 868.885 211.25C868.885 208.65 870.535 202.4 873.835 192.5C877.235 182.7 879.285 176.45 879.985 173.75C877.485 169.55 869.035 148.55 854.635 110.75C854.435 110.25 854.335 109.6 854.335 108.8C854.335 108 854.935 106.95 856.135 105.65C857.335 104.35 858.985 103.7 861.085 103.7C863.185 103.7 864.885 104.75 866.185 106.85C867.585 110.45 869.885 116.75 873.085 125.75C876.285 134.65 878.735 141.1 880.435 145.1C882.235 149.1 883.935 153.25 885.535 157.55C886.935 152.85 889.335 143.75 892.735 130.25C896.135 116.65 898.085 108.9 898.585 107C898.985 104.8 901.185 103.7 905.185 103.7Z" fill="white"/>
<mask id="mask0_107_131" style="mask-type:luminance" maskUnits="userSpaceOnUse" x="0" y="0" width="500" height="238">
<path d="M0 0H500V237.215H0V0Z" fill="white"/>
</mask>
<g mask="url(#mask0_107_131)">
<mask id="mask1_107_131" style="mask-type:luminance" maskUnits="userSpaceOnUse" x="0" y="0" width="500" height="238">
<path d="M0 0H500V237.215H0V0Z" fill="white"/>
</mask>
<g mask="url(#mask1_107_131)">
<path fill-rule="evenodd" clip-rule="evenodd" d="M297.1 4.44557L63.8296 237.038H192.024C194.054 237.053 196.07 236.691 197.967 235.971C199.783 235.259 201.424 234.167 202.781 232.77L436.051 0.118553H307.916C305.886 0.104312 303.871 0.466085 301.973 1.18549C300.154 1.95045 298.499 3.05725 297.1 4.44557Z" fill="#A59AB7"/>
</g>
<mask id="mask2_107_131" style="mask-type:luminance" maskUnits="userSpaceOnUse" x="0" y="0" width="500" height="238">
<path d="M0 0H500V237.215H0V0Z" fill="white"/>
</mask>
<g mask="url(#mask2_107_131)">
<path fill-rule="evenodd" clip-rule="evenodd" d="M319.03 232.651L375.371 176.459L325.924 127.143L258.528 194.301L296.981 232.651C299.915 235.528 303.861 237.145 307.976 237.156C312.108 237.147 316.074 235.531 319.03 232.651Z" fill="#121212"/>
</g>
<mask id="mask3_107_131" style="mask-type:luminance" maskUnits="userSpaceOnUse" x="0" y="0" width="500" height="238">
<path d="M0 0H500V237.215H0V0Z" fill="white"/>
</mask>
<g mask="url(#mask3_107_131)">
<path fill-rule="evenodd" clip-rule="evenodd" d="M443.124 4.50483L386.782 60.7561L499.703 173.377V45.5226C499.699 43.4939 499.316 41.4837 498.574 39.5952C497.837 37.7968 496.745 36.1642 495.364 34.794L464.935 4.44556C462.023 1.53628 458.062 -0.0864721 453.94 -0.0592798C449.873 -0.017065 445.986 1.6229 443.124 4.50483Z" fill="#8200DB"/>
</g>
<mask id="mask4_107_131" style="mask-type:luminance" maskUnits="userSpaceOnUse" x="0" y="0" width="500" height="238">
<path d="M0 0H500V237.215H0V0Z" fill="white"/>
</mask>
<g mask="url(#mask4_107_131)">
<path fill-rule="evenodd" clip-rule="evenodd" d="M495.424 180.49L439.082 124.298L326.162 236.919H454.356C456.387 236.94 458.404 236.578 460.3 235.852C462.111 235.132 463.75 234.042 465.113 232.651L495.543 202.303C498.47 199.401 500.117 195.454 500.119 191.337C500.061 187.243 498.371 183.34 495.424 180.49Z" fill="#8200DB"/>
</g>
<mask id="mask5_107_131" style="mask-type:luminance" maskUnits="userSpaceOnUse" x="0" y="0" width="500" height="238">
<path d="M0 0H500V237.215H0V0Z" fill="white"/>
</mask>
<g mask="url(#mask5_107_131)">
<path fill-rule="evenodd" clip-rule="evenodd" d="M180.91 4.50484L124.628 60.6968L174.076 110.013L241.412 42.8553L202.96 4.50484C200.047 1.59556 196.087 -0.0271917 191.965 6.22824e-07C187.827 -0.0167152 183.852 1.60326 180.91 4.50484Z" fill="#121212"/>
</g>
<mask id="mask6_107_131" style="mask-type:luminance" maskUnits="userSpaceOnUse" x="0" y="0" width="500" height="238">
<path d="M0 0H500V237.215H0V0Z" fill="white"/>
</mask>
<g mask="url(#mask6_107_131)">
<path fill-rule="evenodd" clip-rule="evenodd" d="M56.8169 232.651L113.158 176.459L0.237804 63.8383V191.693C0.235439 193.722 0.618632 195.733 1.36704 197.62C2.0744 199.434 3.16958 201.073 4.57636 202.422L35.0054 232.77C37.9398 235.646 41.8861 237.263 46.0003 237.275C50.0721 237.198 53.953 235.539 56.8169 232.651Z" fill="#8200DB"/>
</g>
<mask id="mask7_107_131" style="mask-type:luminance" maskUnits="userSpaceOnUse" x="0" y="0" width="500" height="238">
<path d="M0 0H500V237.215H0V0Z" fill="white"/>
</mask>
<g mask="url(#mask7_107_131)">
<path fill-rule="evenodd" clip-rule="evenodd" d="M4.51694 56.6662L60.8583 112.858L173.779 0.237093H45.5844C43.5545 0.22693 41.5401 0.58857 39.6412 1.30403C37.816 2.02512 36.1725 3.13816 34.8272 4.56411L4.3981 34.8532C1.48672 37.7616 -0.139327 41.7093 -0.118703 45.819C-0.0698236 49.9033 1.59654 53.8025 4.51694 56.6662Z" fill="#8200DB"/>
</g>
</g>
</svg>
